<?xml version="1.0" encoding="UTF-8"?>
<svg version="1.1" xmlns="http://www.w3.org/2000/svg" width="1024" height="1024">
<path d="M0 0 C337.92 0 675.84 0 1024 0 C1024 337.92 1024 675.84 1024 1024 C686.08 1024 348.16 1024 0 1024 C0 686.08 0 348.16 0 0 Z " fill="#FEFEFE" transform="translate(0,0)"/>
<path d="M0 0 C3.6303794 1.66595886 7.38070489 2.57031839 11.23828125 3.57421875 C30.17930336 8.6575258 45.53217273 17.3054492 61.26171875 28.78515625 C64.42104467 31.08301375 67.6585849 33.24443051 70.92578125 35.38671875 C76.77176467 39.24491129 82.64536754 43.23130504 87.61328125 48.19921875 C88.57750828 57.87905636 88.79664479 71.08539179 82.41796875 78.8828125 C79.37238638 81.3981751 76.56623917 82.63819502 72.92578125 84.13671875 C68.08167263 86.6530978 68.08167263 86.6530978 65.32421875 91.1640625 C64.52623867 96.36284315 64.54099822 101.37422417 64.8828125 106.60546875 C65.53333786 118.07848435 65.53333786 118.07848435 62.5 121.7734375 C60.71912917 123.08525118 58.89784153 124.34409571 57.0390625 125.54296875 C53.98799556 127.62614489 52.92689418 129.21421821 51.93359375 132.71875 C51.03174109 139.70260898 50.69288932 147.38782861 52.61328125 154.19921875 C52.86328125 157.82421875 52.86328125 157.82421875 52.61328125 161.19921875 C49.40948108 163.33508553 48.59388158 163.4305405 44.92578125 163.32421875 C44.11753906 163.30617188 43.30929687 163.288125 42.4765625 163.26953125 C41.86167969 163.24632812 41.24679687 163.223125 40.61328125 163.19921875 C40.51015625 164.12734375 40.40703125 165.05546875 40.30078125 166.01171875 C39.54835141 169.50025711 38.98910873 169.82339127 36.61328125 172.19921875 C36.30390625 173.35421875 35.99453125 174.50921875 35.67578125 175.69921875 C34.61328125 179.19921875 34.61328125 179.19921875 32.60546875 180.58203125 C30.38305371 182.05895111 30.38305371 182.05895111 29.9609375 184.72265625 C29.86683594 185.66367187 29.77273438 186.6046875 29.67578125 187.57421875 C29.07916564 191.60137411 28.75643072 193.01569379 26.17578125 196.32421875 C22.49884879 199.01465714 19.85914434 199.31929489 15.42578125 199.26171875 C14.52472656 199.25269531 13.62367188 199.24367188 12.6953125 199.234375 C11.66470703 199.21697266 11.66470703 199.21697266 10.61328125 199.19921875 C11.4739608 202.8493296 12.13904388 204.79404507 15.02734375 207.26171875 C16.08695313 207.90109375 17.1465625 208.54046875 18.23828125 209.19921875 C18.83511719 209.5653125 19.43195313 209.93140625 20.046875 210.30859375 C22.22195656 211.62994507 24.41507039 212.91670704 26.61328125 214.19921875 C27.53206055 214.73675781 28.45083984 215.27429688 29.39746094 215.828125 C33.52028117 218.23635845 37.64654978 220.63856224 41.77685547 223.03393555 C61.62125961 234.56168204 61.62125961 234.56168204 67.3828125 239.640625 C75.37848147 246.60748062 82.41323881 247.51597844 92.6015625 248.61328125 C103.78276631 249.81789184 111.40022712 253.60977293 119.61328125 261.19921875 C120.40089844 261.8953125 121.18851563 262.59140625 122 263.30859375 C132.73269791 273.33269163 144.86850629 288.15468486 149.61328125 302.19921875 C148.6586952 305.57371082 146.76233883 307.11776179 143.98828125 309.13671875 C138.61752069 313.15166842 133.4516299 317.39350676 128.28662109 321.66772461 C127.6261377 322.20921143 126.9656543 322.75069824 126.28515625 323.30859375 C125.4048877 324.0351416 125.4048877 324.0351416 124.50683594 324.77636719 C122.32421504 326.41642838 119.95435232 327.79457611 117.61328125 329.19921875 C117.61328125 319.29921875 117.61328125 309.39921875 117.61328125 299.19921875 C113.65328125 299.19921875 109.69328125 299.19921875 105.61328125 299.19921875 C101.28832141 298.86234242 97.02626419 298.22773319 92.73828125 297.57421875 C91.56571777 297.39600586 90.3931543 297.21779297 89.18505859 297.03417969 C64.71559431 293.11455551 41.40701362 284.95277397 19.61328125 273.19921875 C18.92331055 272.83151367 18.23333984 272.46380859 17.52246094 272.08496094 C9.96207659 268.03685391 2.8201404 264.11968382 -3.4921875 258.21875 C-5.36623621 256.94391229 -5.36623621 256.94391229 -7.578125 257.6875 C-10.68372314 259.35908064 -13.67403218 261.16160304 -16.66357422 263.03173828 C-47.76022846 282.42647288 -86.82789799 299.3645112 -124.14599609 299.22290039 C-125.89969009 299.21777184 -125.89969009 299.21777184 -127.68881226 299.21253967 C-128.5791214 299.20814377 -129.46943054 299.20374786 -130.38671875 299.19921875 C-130.32431375 308.63447916 -130.24642204 318.0694683 -130.15100384 327.50445271 C-130.10709147 331.88991127 -130.06768664 336.27529341 -130.0402832 340.66088867 C-129.84251823 371.32919204 -129.32555409 402.08672453 -122.26171875 432.07421875 C-121.89632526 433.70265249 -121.53305649 435.33156438 -121.171875 436.9609375 C-120.52305449 439.87665649 -119.86293061 442.78917912 -119.18701172 445.69873047 C-118.54061434 448.52607813 -117.9361721 451.35180195 -117.38671875 454.19921875 C-120.80046844 450.86387674 -123.96529595 447.43474691 -127.01171875 443.76171875 C-127.43195313 443.25600342 -127.8521875 442.75028809 -128.28515625 442.22924805 C-132.22943153 437.45333972 -136.04182263 432.57443199 -139.80712891 427.65649414 C-142.17670739 424.45036092 -142.17670739 424.45036092 -145.38671875 422.19921875 C-145.63542725 423.01712891 -145.63542725 423.01712891 -145.88916016 423.8515625 C-154.29778657 450.3872143 -172.93116626 471.25215008 -194.38671875 488.19921875 C-195.60459595 489.19379109 -195.60459595 489.19379109 -195.48678589 491.14796448 C-195.47551666 492.00349411 -195.46424744 492.85902374 -195.45263672 493.74047852 C-195.44287811 494.70981827 -195.43311951 495.67915802 -195.42306519 496.6778717 C-195.40849274 497.73808029 -195.39392029 498.79828888 -195.37890625 499.890625 C-195.36135629 502.1386671 -195.34445136 504.38671431 -195.328125 506.63476562 C-195.29744522 510.17584505 -195.26231656 513.71666581 -195.21533203 517.25756836 C-194.99034133 535.14685708 -195.73346012 550.81443271 -202.38671875 567.63671875 C-202.77190674 568.64186523 -203.15709473 569.64701172 -203.55395508 570.68261719 C-206.48607448 578.21618676 -209.75096955 585.58187893 -213.07421875 592.94921875 C-222.06328641 612.94559275 -226.47578399 631.53564244 -226.69921875 653.44921875 C-226.71710449 654.64611328 -226.73499023 655.84300781 -226.75341797 657.07617188 C-226.74115583 669.68165065 -223.50833692 680.96651013 -215.02734375 690.6015625 C-209.95908098 695.53708506 -204.32347995 699.9536281 -198.44921875 703.88671875 C-192.35023849 708.49207119 -190.13239822 714.72628649 -187.14453125 721.58984375 C-186.21208479 723.68414339 -185.23102403 725.41526733 -183.88525391 727.28271484 C-178.47309279 734.97775358 -178.49097324 742.29162177 -178.51171875 751.32421875 C-178.49355447 752.77217136 -178.47274019 754.22009326 -178.44921875 755.66796875 C-178.39786628 759.17855896 -178.38225262 762.68820328 -178.38671875 766.19921875 C-185.03955078 765.51855469 -185.03955078 765.51855469 -188.1640625 762.64453125 C-190.76247795 759.08723998 -191.86416428 755.29692172 -192.94921875 751.07421875 C-194.22438347 746.16280692 -195.31701501 742.52037233 -199.38671875 739.19921875 C-200.73880789 739.82697442 -202.0683558 740.50341608 -203.38671875 741.19921875 C-204.09699219 741.53695312 -204.80726563 741.8746875 -205.5390625 742.22265625 C-207.80748292 744.23221942 -207.80748292 744.23221942 -207.65625 748.15625 C-207.53877722 749.77764363 -207.38413376 751.39662631 -207.19921875 753.01171875 C-207.10463379 753.8610498 -207.01004883 754.71038086 -206.91259766 755.58544922 C-205.18347946 767.59434458 -198.10994725 775.59630321 -189.984375 784.22265625 C-187.6568609 787.10217247 -187.00213341 789.58365765 -186.38671875 793.19921875 C-188.38671875 795.19921875 -188.38671875 795.19921875 -191.94921875 795.57421875 C-196.98333113 795.47298431 -200.98127452 793.47506027 -205.38671875 791.19921875 C-209.14828546 789.3184354 -213.75678476 789.84193476 -217.90625 789.67578125 C-221.5575682 789.17582522 -223.3199795 788.12673811 -226.38671875 786.19921875 C-228.8128412 785.85032198 -228.8128412 785.85032198 -231.26171875 785.88671875 C-236.19426892 785.54428174 -238.17360821 784.09562169 -241.59765625 780.6796875 C-243.69564573 778.9435783 -245.46480311 778.37194498 -248.07421875 777.63671875 C-252.29613384 776.39161159 -254.06000711 775.07707149 -256.38671875 771.19921875 C-257.31900787 769.29862933 -258.22850277 767.40129272 -259.06640625 765.45703125 C-260.22487334 763.21525585 -260.22487334 763.21525585 -261.81126404 761.91165161 C-265.69297831 758.26741214 -266.81582966 755.48978408 -267.02026367 750.16308594 C-266.9991143 747.77363729 -266.94623736 745.38432809 -266.8671875 742.99609375 C-266.84378044 741.08573334 -266.84378044 741.08573334 -266.81990051 739.13677979 C-266.77560015 735.75992662 -266.70703111 732.38556657 -266.62384033 729.00958252 C-266.50981149 724.27493125 -266.42631795 719.54006297 -266.360672 714.80450439 C-266.3243027 712.28983861 -266.27189761 709.77533518 -266.20072937 707.26141357 C-266.08746889 700.56847913 -266.71539476 694.95279199 -268.69502258 688.55648804 C-269.55039654 685.64141224 -269.77034084 682.94594549 -269.79296875 679.9140625 C-269.81246582 678.82182373 -269.83196289 677.72958496 -269.85205078 676.60424805 C-269.86349121 675.45996338 -269.87493164 674.31567871 -269.88671875 673.13671875 C-270.32025143 655.77384835 -272.24183865 638.84484336 -275.140625 621.734375 C-278.56396054 601.24717143 -281.0712702 581.25395729 -281.01171875 560.44921875 C-281.01239349 559.51106323 -281.01306824 558.57290771 -281.01376343 557.60632324 C-280.92177139 522.10757439 -271.16014871 492.98812342 -252.99560547 462.89453125 C-247.76090482 454.22192078 -242.82450599 445.78205068 -239.38671875 436.19921875 C-239.03480469 435.31105469 -238.68289063 434.42289063 -238.3203125 433.5078125 C-237.05133756 429.01065025 -236.77995506 424.59774729 -236.44921875 419.94921875 C-236.282471 417.89172105 -236.11309621 415.83443494 -235.94140625 413.77734375 C-235.85213867 412.70419922 -235.76287109 411.63105469 -235.67089844 410.52539062 C-231.88570295 366.22169362 -231.88570295 366.22169362 -217.2421875 350.796875 C-212.07780147 344.40758355 -212.33623645 338.39378125 -212.51171875 330.44921875 C-212.56770016 316.67779144 -211.78692043 303.80016118 -207.26171875 290.69921875 C-206.95459961 289.80340088 -206.64748047 288.90758301 -206.33105469 287.98461914 C-200.43660903 271.42396291 -190.73092818 255.98584683 -174.38671875 248.19921875 C-169.65645997 246.00539546 -165.22962001 244.6469788 -160.13671875 243.57421875 C-152.15181835 241.61823221 -147.30741581 237.74028039 -141.38671875 232.19921875 C-139.59837533 230.63204492 -137.79536524 229.08286916 -135.99121094 227.53393555 C-134.0627072 225.8768272 -132.14353493 224.20949071 -130.2265625 222.5390625 C-122.46694386 215.78448427 -114.69990744 209.04286067 -106.69921875 202.57421875 C-102.00513695 198.76503013 -97.52737135 194.76028243 -93.08984375 190.65625 C-90.38671875 188.19921875 -90.38671875 188.19921875 -88.64697266 186.89794922 C-83.44559155 182.90361041 -81.40614565 178.82175426 -79.26171875 172.69921875 C-78.92970459 171.79155762 -78.59769043 170.88389648 -78.25561523 169.94873047 C-72.94591533 154.89491267 -69.21206897 138.88524368 -69.19921875 122.88671875 C-69.18697266 122.09587891 -69.17472656 121.30503906 -69.16210938 120.49023438 C-69.1475158 114.50200578 -70.07726164 109.02734391 -71.38671875 103.19921875 C-71.73597136 101.48652829 -72.0810145 99.77297414 -72.421875 98.05859375 C-72.59138672 97.21554688 -72.76089844 96.3725 -72.93554688 95.50390625 C-73.10505859 94.66085938 -73.27457031 93.8178125 -73.44921875 92.94921875 C-73.62259766 92.09070313 -73.79597656 91.2321875 -73.97460938 90.34765625 C-74.14283203 89.50976562 -74.31105469 88.671875 -74.484375 87.80859375 C-74.63398682 87.06577148 -74.78359863 86.32294922 -74.93774414 85.55761719 C-78.17468718 68.55442539 -79.4255616 46.61701294 -71.13671875 30.81640625 C-69.69746617 28.73112553 -68.16089821 27.00766348 -66.38671875 25.19921875 C-65.64164063 24.39097656 -64.8965625 23.58273438 -64.12890625 22.75 C-54.01551404 12.14520472 -42.70749196 5.89911662 -29.38671875 0.19921875 C-28.71278076 -0.09283447 -28.03884277 -0.3848877 -27.34448242 -0.68579102 C-18.51212894 -4.28653374 -8.49423216 -4.55905116 0 0 Z " fill="#1C2126" transform="translate(522.38671875,123.80078125)"/>
<path d="M0 0 C0.33 0 0.66 0 1 0 C3.86234443 14.28845108 2.1460026 28.74627245 -1.125 42.77734375 C-2.56656185 49.30825194 -2.11397532 53.44465173 0.75 59.5625 C7.06353742 73.09834158 9.28439033 86.90839864 11.20361328 101.57348633 C13.23739053 116.90169701 18.06722103 127.64222901 26.9375 140.375 C48.43380201 172.02209927 52.37899939 207.3268288 55.0625 244.625 C56.73344204 272.35667168 56.73344204 272.35667168 61.0625 299.75 C62.80659846 307.89344859 64.17278267 315.69256852 64.125 324.0625 C64.12886719 324.74376953 64.13273437 325.42503906 64.13671875 326.12695312 C64.13120689 328.9958764 64.05870632 331.71203034 63.48461914 334.52807617 C62.79085829 339.49833968 62.99922428 344.38188836 63.11328125 349.390625 C63.14541777 351.64971823 63.17596681 353.90883451 63.20507812 356.16796875 C63.25435862 359.70782806 63.31241462 363.24645726 63.39770508 366.78564453 C63.47693408 370.21666726 63.51700755 373.6463911 63.55078125 377.078125 C63.6019384 378.64581635 63.6019384 378.64581635 63.65412903 380.24517822 C63.67916643 387.05357004 62.30376834 391.24889192 58.44000244 396.87228394 C55.90830086 400.61307074 54.77113968 404.86063759 53.37109375 409.1171875 C49.51844102 417.21763684 36.88745453 422.70453036 28.8359375 425.84375 C22.24301093 428.10418197 15.94421522 428.59489158 9 428 C8 427 8 427 7.5 424.3125 C8.14595262 420.0330639 9.64896923 418.94603848 12.94140625 416.3359375 C14.92460815 415.04892602 16.73002376 414.31305066 18.9375 413.5 C25.33711373 410.63767276 27.94097768 402.89681858 31 397 C31.33 396.67 31.66 396.34 32 396 C33.27997866 385.27486941 33.27997866 385.27486941 30.42578125 375.21484375 C27.26976692 372.28726474 25.14305071 371.04482552 20.8125 370.875 C16.67191971 372.52545845 16.67191971 372.52545845 13 375 C11.25335856 379.30377476 10.61916494 383.40124054 10.125 388 C8.8549015 397.2521791 8.8549015 397.2521791 5 401 C1.8125 401.9375 1.8125 401.9375 -1 402 C-2.4903374 400.5096626 -2.31457161 399.10491169 -2.53515625 397.02734375 C-2.62216797 396.20943359 -2.70917969 395.39152344 -2.79882812 394.54882812 C-2.88583984 393.68708984 -2.97285156 392.82535156 -3.0625 391.9375 C-3.19881836 390.68549805 -3.19881836 390.68549805 -3.33789062 389.40820312 C-4.31753402 379.95795897 -4.06245366 373.14566548 -0.328125 364.23046875 C1.01167051 361.13581463 1.01167051 361.13581463 1.765625 358.36328125 C3.83688098 351.52152613 7.90808816 347.96564132 13.13623047 343.39916992 C19.65769113 337.6751052 25.17091545 330.69617391 27 322 C28.25815133 292.32859788 11.04115741 266.67924035 -7.45678711 245.37524414 C-18.08231707 233.02914644 -27.75467938 219.85487054 -33.3125 204.4375 C-33.55524658 203.76541504 -33.79799316 203.09333008 -34.0480957 202.40087891 C-36.64924179 194.75109872 -37.89663725 186.95327825 -38.53515625 178.9140625 C-39.55952003 166.16997776 -40.66170621 156.35601351 -50 147 C-50.66 146.67 -51.32 146.34 -52 146 C-52.1546875 147.7634375 -52.1546875 147.7634375 -52.3125 149.5625 C-52.75132852 153.72491759 -53.61238087 157.67614015 -54.5625 161.75 C-57.33498025 175.42119572 -56.56502099 189.07541349 -54.27880859 202.75854492 C-50.83137941 223.71549474 -49.7798795 245.14282351 -48.3125 266.3125 C-48.24579102 267.26302246 -48.17908203 268.21354492 -48.11035156 269.19287109 C-47.69716974 275.12644985 -47.31922557 281.0606011 -47 287 C-46.90900024 288.67002075 -46.90900024 288.67002075 -46.81616211 290.3737793 C-46.62757183 296.78978955 -47.80500599 302.151847 -49.9375 308.1875 C-50.24888916 309.09024658 -50.56027832 309.99299316 -50.88110352 310.9230957 C-55.47397674 323.69762372 -62.08285648 334.76933533 -71 345 C-71.53882813 345.68191406 -72.07765625 346.36382813 -72.6328125 347.06640625 C-87.55811149 365.48869558 -113.69160909 376.24871894 -134.17834473 387.04003906 C-136.08950444 388.04716631 -137.99935871 389.05674293 -139.90917969 390.06640625 C-143.22747679 391.8189492 -146.55027382 393.56268692 -149.87649536 395.30014038 C-151.15716911 395.96981976 -152.43687097 396.64136134 -153.71554565 397.31484985 C-155.50106082 398.25398694 -157.29145719 399.18382581 -159.08203125 400.11328125 C-160.10530518 400.64735596 -161.1285791 401.18143066 -162.18286133 401.73168945 C-164.82922092 402.92311315 -167.14115691 403.57109162 -170 404 C-170.3309668 403.08114014 -170.66193359 402.16228027 -171.00292969 401.21557617 C-177.87626068 382.18756451 -185.07999216 363.48030861 -193.57226562 345.10400391 C-194.97152037 342.06191689 -196.3413504 339.00824162 -197.703125 335.94921875 C-217.30728912 289.27403152 -217.30728912 289.27403152 -252 254 C-252.99 253.34 -253.98 252.68 -255 252 C-254.56588036 246.29932366 -253.97403835 240.69470364 -252.98046875 235.0625 C-251.81594076 227.58922662 -251.65720721 220.24019164 -251.6875 212.6875 C-251.68799347 212.0101178 -251.68848694 211.3327356 -251.68899536 210.63482666 C-251.71172817 200.43336634 -252.4277049 190.88934177 -255 181 C-255.34325045 179.33534748 -255.68040229 177.66935502 -256 176 C-252.98257536 178.62184763 -251.39553293 181.69763111 -249.5 185.1875 C-241.79030965 198.9822611 -232.54419343 211.26391316 -222 223 C-220.98693602 224.14839944 -219.97391513 225.29683689 -218.9609375 226.4453125 C-212.80654748 233.34605009 -206.37421043 239.38105938 -199 245 C-198.04351562 245.74894531 -197.08703125 246.49789062 -196.1015625 247.26953125 C-185.88322048 255.14114118 -174.2678132 263.68822448 -162 268 C-156.59592861 267.29772939 -152.39238942 264.78942613 -147.6875 262.1875 C-146.80465332 261.69975098 -145.92180664 261.21200195 -145.01220703 260.70947266 C-133.37717304 254.12822977 -122.93472213 246.11333464 -113.16015625 237.0078125 C-111.13461361 235.12512006 -109.05295609 233.34262939 -106.9375 231.5625 C-81.42722421 209.22183763 -63.71134696 175.65022362 -53 144 C-52.72462402 143.195625 -52.44924805 142.39125 -52.16552734 141.5625 C-47.37589283 127.33506246 -44.53467212 112.77556587 -42 98 C-41.71962891 96.4847876 -41.71962891 96.4847876 -41.43359375 94.93896484 C-40.36430451 88.77420465 -39.84643636 82.77258836 -39.71875 76.53125 C-39.68983673 75.42782509 -39.68983673 75.42782509 -39.66033936 74.30210876 C-39.54080545 69.76175642 -39.54080545 69.76175642 -39.49902344 65.22021484 C-39.4609791 52.58134206 -36.43697699 46.25161364 -28 37 C-26.62859982 35.24842526 -25.27547578 33.48231105 -23.9453125 31.69921875 C-23.31633057 30.87446045 -22.68734863 30.04970215 -22.03930664 29.19995117 C-21.09172485 27.95628784 -21.09172485 27.95628784 -20.125 26.6875 C-19.44880615 25.80102783 -18.7726123 24.91455566 -18.07592773 24.0012207 C-14.80990369 19.71386664 -11.55728622 15.41771099 -8.33984375 11.09375 C-7.78345215 10.34649658 -7.22706055 9.59924316 -6.65380859 8.8293457 C-5.6134247 7.42902537 -4.57586646 6.0266001 -3.54150391 4.62182617 C-2.38434492 3.06360872 -1.19577909 1.52878086 0 0 Z " fill="#1C2126" transform="translate(676,442)"/>
<path d="M0 0 C3.44029417 0.91137439 6.33796008 2.68271175 9.37890625 4.50390625 C40.66383037 22.97592333 72.7788857 33.88596755 109 37 C109.23344258 41.35325518 109.3747943 45.70489438 109.5 50.0625 C109.56703125 51.29162109 109.6340625 52.52074219 109.703125 53.78710938 C109.89618081 62.74007275 109.89618081 62.74007275 107.43188477 66.20458984 C105.3794842 67.99154891 103.2619308 69.49011973 101 71 C99.82106535 72.02806579 98.66254841 73.08009177 97.52734375 74.15625 C96.94911865 74.69241943 96.37089355 75.22858887 95.77514648 75.78100586 C88.02525277 83.03050788 80.4497925 90.44337235 72.9375 97.9375 C72.19861038 98.67250732 72.19861038 98.67250732 71.4447937 99.42236328 C66.25977599 104.58585203 61.18815092 109.79898409 56.42407227 115.35766602 C54.70685763 117.3380711 52.88525366 119.17975508 51 121 C47.12013091 124.83544311 43.54023003 128.85150652 40 133 C39.11741203 134.03014033 38.23458026 135.0600718 37.3515625 136.08984375 C35.84407602 137.84811543 34.33710266 139.60681248 32.83178711 141.36694336 C29.56515487 145.18450073 26.27878763 148.98402335 22.97900391 152.77294922 C17.19442264 159.41852295 11.53525479 166.14424326 6 173 C4.33106239 175.05752295 2.66081497 177.11397688 0.99023438 179.17016602 C-0.13933819 180.56073831 -1.26828181 181.95182182 -2.39648438 183.34350586 C-5.56879538 187.25377913 -8.76767529 191.1391677 -12 195 C-21.36449332 190.84548858 -29.58072154 182.59786688 -37.33374023 175.96704102 C-41.2803663 172.59299483 -45.30478453 169.33891403 -49.37890625 166.12109375 C-51.41508005 164.47334059 -53.41479122 162.80261314 -55.40234375 161.09765625 C-55.98822266 160.59556641 -56.57410156 160.09347656 -57.17773438 159.57617188 C-58.3296182 158.5853728 -59.4782001 157.5907188 -60.62304688 156.59179688 C-63.08189757 154.47688358 -64.88937293 153.03687569 -68 152 C-75.03978055 159.67219583 -81.85146019 167.51664664 -88.13671875 175.82421875 C-88.75160156 176.54222656 -89.36648438 177.26023437 -90 178 C-90.66 178 -91.32 178 -92 178 C-95.09986333 168.10004122 -97.68811588 158.32984913 -99.421875 148.09765625 C-99.83350109 145.10339244 -99.83350109 145.10339244 -101 143 C-105.51095986 119.5733345 -105.27679915 95.57492384 -105.1373291 71.82983398 C-105.11646204 67.88657859 -105.10765027 63.94329528 -105.09765625 60 C-105.07653284 52.33326029 -105.04263549 44.66665359 -105 37 C-104.2793335 36.88635605 -103.55866699 36.7727121 -102.81616211 36.65562439 C-99.52301023 36.13535626 -96.23025445 35.61262108 -92.9375 35.08984375 C-91.80376953 34.91110718 -90.67003906 34.73237061 -89.50195312 34.54821777 C-81.89803855 33.33863005 -74.44030777 32.00059492 -67 30 C-65.77667969 29.68804687 -64.55335938 29.37609375 -63.29296875 29.0546875 C-43.39456739 23.7584249 -17.45898229 15.2602812 -2.04003906 1.21459961 C-1.36682617 0.81378174 -0.69361328 0.41296387 0 0 Z " fill="#1B2125" transform="translate(514,404)"/>
<path d="M0 0 C0.33 0 0.66 0 1 0 C3.60842905 41.25182238 -14.30832981 90.2301908 -39 123 C-39.72960937 124.00675781 -40.45921875 125.01351562 -41.2109375 126.05078125 C-56.83302574 147.13967011 -76.30162761 163.17048517 -99 176 C-99.67675781 176.43183594 -100.35351562 176.86367188 -101.05078125 177.30859375 C-105.02159129 178.71707747 -108.36796419 177.28809827 -112.05078125 175.609375 C-146.82842604 155.78403498 -173.02921909 125.28036564 -190.3125 89.4375 C-191.04231079 87.92857178 -191.04231079 87.92857178 -191.78686523 86.38916016 C-194.29196138 81.04329513 -194.29196138 81.04329513 -195 79 C-194.505 78.01 -194.505 78.01 -194 77 C-186.33333333 84.66666667 -178.66666667 92.33333333 -171 100 C-170.22817383 100.73057617 -169.45634766 101.46115234 -168.66113281 102.21386719 C-167 104 -167 104 -167 106 C-165.515 106.495 -165.515 106.495 -164 107 C-162.49232483 108.52644348 -162.49232483 108.52644348 -160.87524414 110.49145508 C-156.80967779 115.27945475 -152.44139923 119.70268758 -147.99609375 124.13671875 C-147.15458267 124.97918655 -146.31307159 125.82165436 -145.44606018 126.68965149 C-143.67824029 128.4581479 -141.9091729 130.22539809 -140.13891602 131.99145508 C-137.43846331 134.6865386 -134.74340613 137.38693492 -132.04882812 140.08789062 C-130.32323731 141.81282083 -128.59733642 143.5374409 -126.87109375 145.26171875 C-126.07094345 146.06389328 -125.27079315 146.86606781 -124.44639587 147.69255066 C-117.55698839 155.08601478 -117.55698839 155.08601478 -109 160 C-108.7525 159.47535156 -108.505 158.95070313 -108.25 158.41015625 C-106.64924521 155.32370092 -104.84088888 152.38413732 -103 149.4375 C-102.36771484 148.42429687 -102.36771484 148.42429687 -101.72265625 147.390625 C-96.89583922 139.7292229 -91.83694087 132.2220504 -86.79434204 124.70199585 C-82.4890588 118.2795034 -78.21059225 111.85466147 -74.1875 105.25 C-66.33404057 92.40701058 -57.6165045 80.08633988 -49.13067627 67.6572876 C-47.63495241 65.46493187 -46.14371174 63.26953913 -44.65234375 61.07421875 C-38.49269694 52.03135618 -32.10792084 43.15838316 -25.67480469 34.30859375 C-23.97826271 31.97003676 -22.28880357 29.62652478 -20.6015625 27.28125 C-3.4645551 3.4645551 -3.4645551 3.4645551 0 0 Z " fill="#1D2227" transform="translate(620,514)"/>
<path d="M0 0 C2.79713339 2.79713339 3.11338231 6.01087087 4 9.75 C12.40722239 43.08909763 24.7455932 77.50222927 44.50390625 105.84765625 C46 108 46 108 47 110 C31.24872555 102.82479906 19.61073865 79.36639611 13.5625 63.875 C12.7076816 61.58357636 11.8534875 59.2919197 11 57 C10.49210937 55.84886719 9.98421875 54.69773437 9.4609375 53.51171875 C2.93061396 37.81449719 -1.2905502 16.99224431 0 0 Z " fill="#EFF0F0" transform="translate(465,263)"/>
<path d="M0 0 C-3.75 4.875 -3.75 4.875 -6 6 C-7.48466127 5.91218235 -8.96549586 5.75757505 -10.44140625 5.57421875 C-18.09170511 4.80008879 -25.72427367 4.81395226 -33.40600586 4.81469727 C-35.9290446 4.81250734 -38.45164733 4.79427911 -40.97460938 4.77539062 C-49.84610891 4.74563037 -58.28892862 5.07980005 -67 7 C-64.88601389 4.88601389 -63.8180544 4.44991894 -61.03515625 3.5625 C-60.24133545 3.30807129 -59.44751465 3.05364258 -58.62963867 2.79150391 C-39.37609605 -3.14477619 -19.69390889 -6.24259753 0 0 Z " fill="#E3E3E4" transform="translate(602,170)"/>
<path d="M0 0 C0 0.33 0 0.66 0 1 C-1.79630859 1.22042969 -1.79630859 1.22042969 -3.62890625 1.4453125 C-14.531913 2.89784567 -24.06234354 5.11045467 -34 10 C-34.65597168 10.32242676 -35.31194336 10.64485352 -35.98779297 10.97705078 C-51.56197435 18.81820554 -62.98168809 28.77535396 -73 43 C-73.33 42.34 -73.66 41.68 -74 41 C-69.59302289 28.32994082 -64.71056757 19.03993283 -52.5 12.8125 C-44.88743087 9.14663463 -37.11856808 6.35187385 -29 4 C-28.0095166 3.70585205 -28.0095166 3.70585205 -26.99902344 3.40576172 C-17.93516212 0.75001126 -9.51193509 -0.58635216 0 0 Z " fill="#F0F0F2" transform="translate(413,363)"/>
<path d="M0 0 C5.4212888 5.4212888 5.30029811 15.82714348 5.3125 23.1875 C5.1320302 36.59450654 1.73064194 48.9426474 -6 60 C-7.41956635 57.16086731 -6.52108113 55.7185525 -5.6640625 52.69140625 C-3.94687541 46.13620569 -3.06444516 39.66947088 -2.375 32.9375 C-2.25020264 31.7724292 -2.12540527 30.6073584 -1.99682617 29.40698242 C-0.98376938 19.61723716 -0.34737399 9.83427753 0 0 Z " fill="#E4E6E7" transform="translate(294,622)"/>
<path d="M0 0 C4.63157895 3.26315789 4.63157895 3.26315789 6 6 C6.16796875 8.05859375 6.16796875 8.05859375 6.1875 10.4375 C6.20167969 11.21996094 6.21585937 12.00242188 6.23046875 12.80859375 C6 15 6 15 4 18 C3.75780685 20.97449608 3.75780685 20.97449608 3.875 24.1875 C3.90207031 25.81751953 3.90207031 25.81751953 3.9296875 27.48046875 C3.95289063 28.31191406 3.97609375 29.14335937 4 30 C0.36756406 26.71176666 -0.767276 24.74130183 -1.18359375 19.94921875 C-0.89565383 16.89215451 1.03668718 15.26078446 3 13 C3.75 10 3.75 10 3 7 C0.9575649 3.95726583 0.9575649 3.95726583 -2 2 C-4.59517741 1.43394142 -4.59517741 1.43394142 -7 3 C-11.07306573 7.43015642 -12.5747889 11.54880916 -12.42504883 17.52978516 C-11.61481674 22.23853201 -8.98927058 25.9746407 -6.4375 29.9375 C-5.38783484 31.60909494 -4.34449245 33.28468289 -3.30859375 34.96484375 C-2.84251709 35.6930835 -2.37644043 36.42132324 -1.89624023 37.17163086 C-1.60048096 37.77499268 -1.30472168 38.37835449 -1 39 C-1.33 39.66 -1.66 40.32 -2 41 C-9.16185258 32.26955723 -15.48247415 24.05419106 -15.34765625 12.3828125 C-14.57592507 7.09341903 -11.53302513 3.26474573 -7.5 -0.0625 C-4.39987414 -1.2250472 -3.09424267 -1.160341 0 0 Z " fill="#DCDCE1" transform="translate(472,207)"/>
<path d="M0 0 C2.41212839 2.41212839 2.97560182 4.35141908 4.125 7.5625 C8.91672337 20.30284685 14.85577596 32.41296164 22 44 C11.57684349 38.98972734 6.77835538 30.03775992 2.8125 19.51171875 C0.71969733 13.04214127 -0.29512451 6.78786384 0 0 Z " fill="#EDEDEF" transform="translate(682,625)"/>
<path d="M0 0 C0 0.33 0 0.66 0 1 C-14.20577528 1.38587116 -26.4334033 0.65718991 -40 -4 C-28.39617527 -10.73945793 -11.70564783 -3.38433186 0 0 Z " fill="#E8E9EA" transform="translate(481,373)"/>
<path d="M0 0 C1.29866815 3.89600445 0.3601272 5.00772016 -1.3125 8.6875 C-5.44269123 18.26359435 -6.44249766 26.55416675 -7 37 C-10.94744297 31.07883555 -12.12709311 24.99777808 -11 18 C-8.4452425 11.21579445 -4.97394656 5.26653165 0 0 Z " fill="#E9EAEB" transform="translate(529,331)"/>
<path d="M0 0 C-8.82791132 5.88527422 -19.66611368 6.69013834 -30 7 C-22.4813886 -1.49189443 -10.31351015 -0.46585491 0 0 Z " fill="#E9EAEC" transform="translate(583,371)"/>
<path d="M0 0 C3.16115776 1.36983503 3.9927092 1.9890638 6 5 C6.265625 7.15625 6.265625 7.15625 6.25 9.5 C6.25515625 10.2734375 6.2603125 11.046875 6.265625 11.84375 C6 14 6 14 4 17 C3.75780685 19.97449608 3.75780685 19.97449608 3.875 23.1875 C3.90207031 24.81751953 3.90207031 24.81751953 3.9296875 26.48046875 C3.95289063 27.31191406 3.97609375 28.14335937 4 29 C0.36756406 25.71176666 -0.767276 23.74130183 -1.18359375 18.94921875 C-0.89565383 15.89215451 1.03668718 14.26078446 3 12 C3.5084648 8.44074642 3.50667214 6.76000821 1.5 3.75 C1.005 3.1725 0.51 2.595 0 2 C0 1.34 0 0.68 0 0 Z " fill="#ECECEC" transform="translate(472,208)"/>
<path d="M0 0 C0.99 0.66 1.98 1.32 3 2 C2.34 2 1.68 2 1 2 C0.8453125 3.7634375 0.8453125 3.7634375 0.6875 5.5625 C-0.06380475 12.45682595 -1.57946568 19.21895881 -3 26 C-3.33 25.34 -3.66 24.68 -4 24 C-5.65 24.33 -7.3 24.66 -9 25 C-6.286575 16.55823333 -3.14265947 8.28889147 0 0 Z " fill="#292C31" transform="translate(623,586)"/>
<path d="M0 0 C0 0.33 0 0.66 0 1 C-1.83111328 1.23783203 -1.83111328 1.23783203 -3.69921875 1.48046875 C-12.87141531 2.75290681 -21.08866842 4.32364152 -29.62890625 8.01171875 C-32 9 -32 9 -34 9 C-32.51991565 5.26898389 -32.51991565 5.26898389 -30.23510742 4.08691406 C-29.53232666 3.89838867 -28.8295459 3.70986328 -28.10546875 3.515625 C-26.92754761 3.19597778 -26.92754761 3.19597778 -25.72583008 2.86987305 C-24.88818115 2.66531494 -24.05053223 2.46075684 -23.1875 2.25 C-22.33760498 2.0331958 -21.48770996 1.8163916 -20.61206055 1.59301758 C-13.62690069 -0.08097009 -7.18506011 -0.58048062 0 0 Z " fill="#CBCDD0" transform="translate(413,363)"/>
<path d="M0 0 C3.09164355 4.02363355 5.66175789 8.26739464 8.25 12.625 C8.72179687 13.40101563 9.19359375 14.17703125 9.6796875 14.9765625 C10.12054688 15.7190625 10.56140625 16.4615625 11.015625 17.2265625 C11.42071289 17.90283691 11.82580078 18.57911133 12.24316406 19.27587891 C12.49291992 19.84483887 12.74267578 20.41379883 13 21 C12.67 21.66 12.34 22.32 12 23 C-0.45125045 7.82167452 -0.45125045 7.82167452 0 0 Z " fill="#E3E4E6" transform="translate(458,225)"/>
<path d="M0 0 C2.67217184 2.67217184 2.97645744 4.43636341 3.1328125 8.1796875 C3.13023437 9.39914062 3.12765625 10.61859375 3.125 11.875 C3.12757813 13.08929687 3.13015625 14.30359375 3.1328125 15.5546875 C3.01884298 18.51119095 2.68703101 21.13191815 2 24 C1.67 24 1.34 24 1 24 C-0.12513633 15.98340366 -0.09579384 8.07861415 0 0 Z " fill="#F3F6F6" transform="translate(254,619)"/>
<path d="M0 0 C2.42945561 3.64418341 2.0828781 4.92923364 1.625 9.1875 C1.51414063 10.27417969 1.40328125 11.36085938 1.2890625 12.48046875 C1.19367188 13.31191406 1.09828125 14.14335938 1 15 C-0.65 14.67 -2.3 14.34 -4 14 C-3.36843005 8.94744036 -1.86540627 4.70406799 0 0 Z " fill="#383D40" transform="translate(253,616)"/>
<path d="M0 0 C3.09505687 3.09505687 5.026175 6.28384619 7.125 10.0625 C7.66447266 11.01866211 7.66447266 11.01866211 8.21484375 11.99414062 C9.51798279 14.3100188 10.81142644 16.62285288 12 19 C8.31197956 17.77065985 7.27643027 16.06140622 5 13 C4.01 13.495 4.01 13.495 3 14 C2.01 9.38 1.02 4.76 0 0 Z " fill="#393E3E" transform="translate(420,618)"/>
<path d="M0 0 C0 1.32 0 2.64 0 4 C-4.62 4.33 -9.24 4.66 -14 5 C-11.34451542 2.34451542 -10.30676727 1.47751209 -7 0.25 C-5.9790625 -0.14445312 -5.9790625 -0.14445312 -4.9375 -0.546875 C-3 -1 -3 -1 0 0 Z " fill="#E2E1E5" transform="translate(567,373)"/>
<path d="M0 0 C2.52480693 2.52480693 2.55738633 4.13823034 3.125 7.625 C3.29257812 8.62789063 3.46015625 9.63078125 3.6328125 10.6640625 C3.75398438 11.43492187 3.87515625 12.20578125 4 13 C3.34 13 2.68 13 2 13 C1.67 13.99 1.34 14.98 1 16 C-0.06723961 12.53777385 -0.10173486 9.35960734 -0.0625 5.75 C-0.04896484 4.13351562 -0.04896484 4.13351562 -0.03515625 2.484375 C-0.02355469 1.66453125 -0.01195312 0.8446875 0 0 Z " fill="#CACDD0" transform="translate(465,263)"/>
<path d="M0 0 C1.12894876 0.93274109 2.25300876 1.87140122 3.375 2.8125 C4.00148438 3.33457031 4.62796875 3.85664062 5.2734375 4.39453125 C7 6 7 6 9 9 C7.35 9.66 5.7 10.32 4 11 C3.32880451 9.5437455 2.66318193 8.08492133 2 6.625 C1.62875 5.81289063 1.2575 5.00078125 0.875 4.1640625 C0 2 0 2 0 0 Z " fill="#3A3D3E" transform="translate(425,591)"/>
<path d="M0 0 C0.99 0.66 1.98 1.32 3 2 C2.34 2 1.68 2 1 2 C0.95101562 2.60328125 0.90203125 3.2065625 0.8515625 3.828125 C0.77679687 4.62734375 0.70203125 5.4265625 0.625 6.25 C0.55539062 7.03890625 0.48578125 7.8278125 0.4140625 8.640625 C-0.01507113 11.085877 -0.78600638 12.84836903 -2 15 C-3.1171875 13.359375 -3.1171875 13.359375 -4 11 C-3.3203125 8.203125 -3.3203125 8.203125 -2.125 5.25 C-1.73570312 4.26515625 -1.34640625 3.2803125 -0.9453125 2.265625 C-0.63335938 1.51796875 -0.32140625 0.7703125 0 0 Z " fill="#55585A" transform="translate(623,586)"/>
<path d="M0 0 C1.75570313 0.02707031 1.75570313 0.02707031 3.546875 0.0546875 C4.88492187 0.08949219 4.88492187 0.08949219 6.25 0.125 C6.25 0.455 6.25 0.785 6.25 1.125 C4.19921875 1.35286458 2.1484375 1.58072917 0.09765625 1.80859375 C-1.76140229 1.94386614 -1.76140229 1.94386614 -2.75 3.125 C-5.44082872 2.94864548 -8.07851446 2.50664079 -10.75 2.125 C-7.15537669 -0.13498595 -4.18404325 -0.08368087 0 0 Z " fill="#BABCC1" transform="translate(451.75,366.875)"/>
<path d="M0 0 C2.5654594 2.5654594 2.54046087 4.47686668 3 8 C2.34 8 1.68 8 1 8 C1 10.31 1 12.62 1 15 C0.67 15 0.34 15 0 15 C0 10.05 0 5.1 0 0 Z " fill="#E3E7EA" transform="translate(254,619)"/>
<path d="M0 0 C2.95183101 2.95183101 3.08663988 5.95511947 4 10 C3.01 10.33 2.02 10.66 1 11 C-0.17571451 7.32589215 -0.07366746 3.83070817 0 0 Z " fill="#D5D7DB" transform="translate(682,625)"/>
<path d="M0 0 C0.99 0.99 1.98 1.98 3 3 C1.35 5.31 -0.3 7.62 -2 10 C-3 8 -3 8 -2.44140625 6.0546875 C-2.15136719 5.33539063 -1.86132812 4.61609375 -1.5625 3.875 C-1.27503906 3.15054687 -0.98757813 2.42609375 -0.69140625 1.6796875 C-0.46324219 1.12539063 -0.23507812 0.57109375 0 0 Z " fill="#CCCED2" transform="translate(342,396)"/>
<path d="M0 0 C2 3 2 3 1.75 6.625 C1.5025 7.73875 1.255 8.8525 1 10 C0.01 10.495 0.01 10.495 -1 11 C-1.0270043 9.54176788 -1.04639787 8.08339325 -1.0625 6.625 C-1.07410156 5.81289062 -1.08570313 5.00078125 -1.09765625 4.1640625 C-1 2 -1 2 0 0 Z " fill="#D1D4D6" transform="translate(458,215)"/>
<path d="M0 0 C0.33 0 0.66 0 1 0 C1 3.3 1 6.6 1 10 C-0.65 10 -2.3 10 -4 10 C-3.525625 9.46375 -3.05125 8.9275 -2.5625 8.375 C-0.71813924 5.57157164 -0.37543153 3.30379742 0 0 Z " fill="#464A4E" transform="translate(343,880)"/>
<path d="M0 0 C0.33 0 0.66 0 1 0 C1 2.31 1 4.62 1 7 C0.01 7 -0.98 7 -2 7 C-2.33 6.01 -2.66 5.02 -3 4 C-1.625 1.8125 -1.625 1.8125 0 0 Z " fill="#393D3F" transform="translate(620,598)"/>
<path d="M0 0 C2.99324263 1.0975223 3.84610901 1.67682892 5.25 4.625 C5.4975 5.40875 5.745 6.1925 6 7 C3.00675737 5.9024777 2.15389099 5.32317108 0.75 2.375 C0.5025 1.59125 0.255 0.8075 0 0 Z " fill="#E4E5E7" transform="translate(472,208)"/>
<path d="M0 0 C0.66 0.33 1.32 0.66 2 1 C0.00045871 3.99931194 -0.73795271 4.81380099 -4 6 C-4.99 5.67 -5.98 5.34 -7 5 C-4.69 3.35 -2.38 1.7 0 0 Z " fill="#3B3F42" transform="translate(366,379)"/>
<path d="M0 0 C-0.99 0.33 -1.98 0.66 -3 1 C-3.33 1.66 -3.66 2.32 -4 3 C-5.65 3 -7.3 3 -9 3 C-6.27596221 -1.08605669 -4.4643819 -1.38549783 0 0 Z " fill="#E2E1E4" transform="translate(556,171)"/>
</svg>
